PathFileType	4	(X/Y/Z)	Patient4_TMGait_0pt6_01_left_39.trc.trc
DataRate	CameraRate	NumFrames	NumMarkers	Units	OrigDataRate	OrigDataStartFrame	OrigNumFrames
82.352941176470	82.352941176470	5	33	mm	82.352941176470	1	       141
Frame#	Time	Sacral			L.Shoulder			Chest			R.Shoulder			Neck			R.ASIS			L.ASIS			R.Thigh.Superior			R.Thigh.Lateral			R.Thigh.Inferior			R.Patella			L.Thigh.Superior			L.Thigh.Lateral			L.Thigh.Inferior			L.Patella			L.Shank.Superior			L.Shank.Lateral			L.Shank.Inferior			R.Shank.Superior			R.Shank.Lateral			R.Shank.Inferior			R.Heel			R.Midfoot.Superior			R.Midfoot.Lateral			R.Toe			L.Heel			L.Midfoot.Lateral			L.Midfoot.Superior			L.Toe			L.Elbow			L.Wrist			R.Elbow			R.Wrist			
		X1	Y1	Z1	X2	Y2	Z2	X3	Y3	Z3	X4	Y4	Z4	X5	Y5	Z5	X6	Y6	Z6	X7	Y7	Z7	X8	Y8	Z8	X9	Y9	Z9	X10	Y10	Z10	X11	Y11	Z11	X12	Y12	Z12	X13	Y13	Z13	X14	Y14	Z14	X15	Y15	Z15	X16	Y16	Z16	X17	Y17	Z17	X18	Y18	Z18	X19	Y19	Z19	X20	Y20	Z20	X21	Y21	Z21	X22	Y22	Z22	X23	Y23	Z23	X24	Y24	Z24	X25	Y25	Z25	X26	Y26	Z26	X27	Y27	Z27	X28	Y28	Z28	X29	Y29	Z29	X30	Y30	Z30	X31	Y31	Z31	X32	Y32	Z32	X33	Y33	Z33	

1	47.480000000000	762.045030219988	1013.178950182716	506.156965136726	916.412966747935	1444.346256189978	316.834589904186	1036.790323520913	1377.535426414157	465.474802676610	969.484408096934	1444.413641090994	648.326891780721	908.301555451946	1500.610266174768	473.944835804709	995.840791291252	946.302295131759	602.757880236611	961.258557703090	971.439786894726	332.903059612733	1027.188446895356	741.749278836163	573.246971579738	939.566446133856	634.515382769652	628.917324108873	1013.204324165344	581.519021061956	547.119167805531	1008.703593189022	493.325165863063	549.910282990285	1046.481810729796	786.734041157749	355.702516780765	999.285058870675	662.160700852624	277.392470070473	1108.641642215300	600.724178264121	328.979276241212	1123.324164642524	511.172710849931	319.622142516766	1058.781135634325	441.826091237464	317.986193201263	915.795129843068	392.722604955743	280.657407710771	914.104156356514	262.789812942681	336.349728898042	978.602824163203	405.994380672462	553.110084682321	903.221573845722	301.639307024098	606.898634494856	945.592110287445	208.450505854808	541.505068505799	807.528288954548	46.040575320193	500.236081701365	979.350578306649	97.193188005753	543.137784944091	888.670879216597	37.781046633207	577.055521031739	1097.191434786041	39.189279462381	574.470640767796	729.495024791685	190.886711169195	388.384367369826	782.805507947159	146.149194769728	304.449422910620	889.284377503519	157.475447214797	317.953389262030	968.222678833848	46.988680365422	285.327787571109	895.671801993704	1083.418741567536	212.204537766510	962.401429185382	831.901237440239	206.311240104661	1021.316170098292	1096.848628444203	767.990977347437	1238.450640663993	957.904793181293	733.107222254270	
2	47.492142857143	760.836439484746	1014.780423003310	507.201300145015	916.206700164396	1444.750500528331	317.084178336136	1037.003065423996	1377.744450169255	465.279219693942	970.987802687113	1445.528575556042	648.213535878727	908.766641192099	1501.291412958657	474.045279065433	994.190715481022	946.681698877473	603.695157504829	959.709587320439	972.108412323361	333.778789841093	1022.608165586895	741.528085421371	573.555712660820	934.284911946307	635.179395135524	629.828474415541	1006.984884540403	581.421549784021	547.938833106678	1001.611846038133	493.600510411945	550.923606186408	1045.648052496703	789.571811311787	356.514178697234	999.862861594120	664.470996332607	277.579850323417	1109.514851003558	604.268732169523	329.255728884203	1125.780535973384	516.015190879830	319.665504229420	1065.002142308995	445.106803188426	317.356845011121	925.818546054768	387.882023275754	280.247754034427	932.923560920980	258.154000932901	334.323205102261	971.476881192267	406.466703028492	553.980489982034	895.664112128821	302.258247421014	607.487803675904	938.221648296787	208.965941085569	542.183677820671	799.943373960792	46.851669028495	500.276283743120	971.709376165035	97.131408301296	543.160995662378	881.011851061888	38.045895160032	577.161344007793	1089.482701448731	39.035096281711	574.594814675172	754.969012683064	174.117338403238	386.548116900162	809.954162161853	134.317335306627	301.727203474020	914.890691389396	152.509024057149	314.841640216854	1000.197719711331	48.606590409431	280.270391923740	886.513856097618	1084.358905089585	214.012050489000	942.245845073031	831.172991679323	209.596999325079	1031.489108196445	1100.123688280851	767.148095744269	1255.518480647458	978.304933785217	729.383253633063	
3	47.504285714286	759.647976092533	1016.322019084354	508.210263541111	916.021972073543	1445.130416059857	317.328154291085	1037.220505244350	1377.907072826734	465.080512611880	972.454749505875	1446.573978370126	648.091219505164	909.221070717463	1501.922803330223	474.134730724291	992.561489972058	947.015732854497	604.594786976796	958.182466053419	972.718139113558	334.614343729149	1018.122152977269	741.272147973702	573.853593002500	929.089714353262	635.788522880842	630.704068749404	1000.864484812409	581.290231038548	548.725660368783	994.622318244661	493.845446204950	551.897789304675	1044.744376436662	792.224252054198	357.295216108433	1000.269021996409	666.606034125772	277.792274111753	1110.154316821406	607.561370828672	329.603581788710	1127.989164308668	520.666523421102	319.771165111563	1070.992635948660	448.273942966865	316.789801791957	935.794776509936	382.972734190652	279.776823075127	951.647493327567	253.595437365008	332.318899137813	964.445168237812	406.888933374282	554.804941582617	888.213097161302	302.831873373691	608.052491844588	930.924517506065	209.437297850179	542.826081694741	792.434036289290	47.600070409824	500.331334562458	964.149852825881	97.081099149046	543.200960570887	873.428565185465	38.287299220326	577.263994695956	1081.849552954012	38.890308643965	574.714810521324	780.500974209974	157.550837654010	384.585679626303	837.157491069948	122.704632387259	298.954786565523	940.433297509256	147.710848418066	311.788384957770	1032.017131698299	50.464213328325	275.410182982210	877.421873348282	1085.356864495920	215.754121184107	922.423758504486	830.600878621551	212.850459300607	1041.542159666556	1103.366755349246	766.276280181118	1272.152325091058	998.541390793280	725.686884614568	
4	47.516428571429	758.496348588672	1017.727547273652	509.145443282011	915.867704553601	1445.447423339640	317.555302795904	1037.440660675671	1377.967098529744	464.868039785867	973.848433794073	1447.468622629330	647.945169318985	909.650104335844	1502.442189369054	474.200080980588	990.977131131067	947.248826127454	605.406740965835	956.693093777449	973.197858834358	335.361660400819	1013.801143114716	740.935318130421	574.125816872747	924.031384331845	636.287700419257	631.507417915550	994.895248076954	581.082701339755	549.445874405966	987.785659885094	494.021274256957	552.790287139102	1043.685914156389	794.483191668506	358.014815406073	1000.334370542685	668.384097035984	278.028444830547	1110.334478240244	610.346139038307	330.075720359376	1129.704003565859	524.931983781993	320.001580854656	1076.535408731661	451.222307471796	316.337691126721	945.703160451749	377.948591123167	279.195445130692	970.210588635432	249.234124221027	330.367840763096	957.545494808102	407.212784386587	555.540797288517	880.916889043958	303.315590540904	608.570702508556	923.717549209087	209.820783226841	543.398055285314	785.016686413383	48.226155889722	500.407863291413	956.691369600504	97.046611968704	543.264932497450	865.938876330780	38.482599669486	577.359106145090	1074.312428231131	38.764107241245	574.826390695927	806.201392206031	141.448716851308	382.409676152884	864.524739700486	111.576773158051	296.123415284610	965.890463218266	143.299490345730	308.868882269284	1063.561840232644	52.860139755365	270.977928179368	868.438036992995	1086.461413583771	217.374307263894	903.191418219085	830.324437473765	216.044638748951	1051.394133918964	1106.560722537371	765.343323631061	1287.945237225382	1018.515532766691	722.031322896138	
5	47.528571428571	757.393646561184	1018.927918632935	509.975313857252	915.746629734830	1445.663587723368	317.753542035733	1037.659528013385	1377.873829967887	464.630800500649	975.138382693927	1448.140980671615	647.761288110231	910.038925500777	1502.792333603588	474.232507654103	989.460140696628	947.329868133550	606.085679448892	955.252810442592	973.484065826758	335.978362524118	1009.694014633494	740.472138192242	574.362705449866	919.135254369216	636.629704894807	632.208296831042	989.099729770463	580.757907295935	550.073480561153	981.121167160874	494.089172255748	553.564584536737	1042.394061837143	796.169107411150	358.647688166590	999.922131237364	669.655731295154	278.271946022060	1109.873521025191	612.415006637617	330.706938296531	1130.731713189204	528.657630695316	320.408372308963	1081.465971314575	453.873558680792	316.045613163096	955.555430595646	372.790424764756	278.455710282740	988.573168216567	245.197520655466	328.506344864941	950.784396322464	407.396108291883	556.153858073177	873.789272633173	303.671038577579	609.024852668618	916.591968659459	210.078628173291	543.871688248709	777.679989718853	48.678516845565	500.504708266089	949.323171207681	97.027590198495	543.353700648595	858.534602204471	38.612924136658	577.443630411044	1066.866009181473	38.664379990929	574.926303337184	832.173156296783	126.067418405870	379.949810843471	892.176449850562	101.186904784207	293.242989292084	991.265576310244	139.488285830469	306.167898139967	1094.758621470916	56.075892081819	267.221377611644	859.588627164858	1087.706664144209	218.832820557303	884.722061403648	830.445143536116	219.158742166572	1060.997461964021	1109.697329467984	764.322993277649	1302.584302940683	1038.169381726502	718.421906573173	
